<?xml version="1.0" encoding="UTF-8"?>
<svg version="1.1" xmlns="http://www.w3.org/2000/svg" width="1006" height="557">
<path d="M0 0 C0.69091736 -0.00100708 1.38183472 -0.00201416 2.09368896 -0.00305176 C12.70875157 0.0074128 22.73704862 0.58499523 33.0625 3.25 C34.16464844 3.51683594 35.26679688 3.78367187 36.40234375 4.05859375 C58.1664713 9.9942649 78.2974694 23.84667067 90.0625 43.25 C116.74494159 90.45345524 107.97439386 159.00230438 105.0625 211.25 C105.00868164 212.26191406 104.95486328 213.27382812 104.89941406 214.31640625 C103.47260229 239.04781026 97.43246176 262.65151442 80.0625 281.25 C79.35480469 282.02472656 78.64710938 282.79945313 77.91796875 283.59765625 C57.35239257 305.17170201 28.45607382 312.34565442 -0.40625 313.2109375 C-25.66132033 313.61855711 -51.68200955 305.90420525 -70.9375 289.25 C-72.61915825 287.598461 -74.28714538 285.93282061 -75.9375 284.25 C-76.52273438 283.69957031 -77.10796875 283.14914062 -77.7109375 282.58203125 C-98.72515855 262.64414835 -103.93834385 233.91610209 -104.9375 206.25 C-105.13053415 197.7046645 -105.12693414 189.15648777 -105.140625 180.609375 C-105.14345238 179.40449684 -105.14627975 178.19961868 -105.14919281 176.95822906 C-105.16408181 170.58624562 -105.17337713 164.21428423 -105.17773438 157.84228516 C-105.18321586 151.32611973 -105.20726739 144.81016352 -105.23570633 138.29406357 C-105.25448707 133.22171465 -105.25954637 128.14941472 -105.26107025 123.077034 C-105.2640606 120.67729799 -105.27196339 118.27756208 -105.28525543 115.87786102 C-105.44639332 84.56339877 -101.86355605 55.23277152 -79.9375 31.25 C-79.17824219 30.39792969 -78.41898437 29.54585937 -77.63671875 28.66796875 C-57.34829184 7.05133059 -28.66832486 0.02894157 0 0 Z M-29.6796875 66.0625 C-38.72961285 77.22857705 -40.24632059 90.87822728 -40.19628906 104.76123047 C-40.1997937 105.97236511 -40.20329834 107.18349976 -40.20690918 108.43133545 C-40.21415836 111.72488766 -40.21252203 115.01827674 -40.20615101 118.31182623 C-40.20104666 121.77886105 -40.20579489 125.24588585 -40.20892334 128.71292114 C-40.21255114 134.53470787 -40.20779618 140.35644368 -40.19824219 146.17822266 C-40.18737016 152.87993741 -40.19087888 159.58153032 -40.201895 166.28324211 C-40.21101411 172.06533492 -40.21223038 177.84739137 -40.20701766 183.62948906 C-40.20392192 187.07041486 -40.20342164 190.51128368 -40.21009064 193.95220566 C-40.21520492 197.79487937 -40.20737641 201.63732371 -40.19628906 205.47998047 C-40.20033752 206.59931976 -40.20438599 207.71865906 -40.20855713 208.87191772 C-40.12849494 223.95163088 -38.00370058 236.90713953 -27.29296875 248.0546875 C-17.91428926 256.795679 -7.33416478 258.95829202 5.22265625 258.53125 C15.00081183 257.81504735 23.12400343 254.34748238 30.00390625 247.24609375 C44.18728915 230.12187983 42.3762449 209.15858406 42.36328125 188.1953125 C42.36717568 185.56322157 42.37151188 182.93113126 42.37626648 180.29904175 C42.38443673 174.80041887 42.3836001 169.30184747 42.37817383 163.80322266 C42.37213852 157.48999605 42.38444905 151.17699257 42.4057439 144.86380398 C42.42563167 138.737424 42.4285164 132.6111467 42.42500877 126.4847374 C42.42551841 123.9022456 42.43068801 121.31974996 42.44082069 118.73727798 C43.07620782 90.29671832 43.07620782 90.29671832 31.31640625 65.1328125 C22.2176553 56.31780638 10.05484979 53.85746738 -2.16796875 53.97265625 C-12.54157912 54.73589598 -22.40219441 58.49129643 -29.6796875 66.0625 Z " fill="#ffffff" transform="translate(432.9375,13.75)"/>
<path d="M0 0 C0.64414352 -0.00671722 1.28828705 -0.01343445 1.95195007 -0.02035522 C4.08751081 -0.03939539 6.22275802 -0.04326298 8.35839844 -0.04541016 C9.84332407 -0.05183616 11.32824843 -0.05856437 12.81317139 -0.06558228 C15.93032768 -0.07757164 19.04737305 -0.08126163 22.16455078 -0.08007812 C26.1504837 -0.07987535 30.13570031 -0.10712652 34.12146378 -0.14162254 C37.19107294 -0.16391613 40.26051075 -0.16791486 43.33019257 -0.16685867 C44.79895231 -0.1692129 46.26771691 -0.17802649 47.73639679 -0.19352341 C49.79742176 -0.21322588 51.85691663 -0.20732992 53.91796875 -0.1953125 C55.08886047 -0.19816254 56.2597522 -0.20101257 57.46612549 -0.20394897 C62.25623588 0.52448048 65.30108897 2.67078646 68.4662323 6.28959656 C68.93491226 6.99332901 69.40359222 7.69706146 69.88647461 8.42211914 C70.43111862 9.22783859 70.97576263 10.03355804 71.53691101 10.86369324 C72.39020744 12.1635894 72.39020744 12.1635894 73.26074219 13.48974609 C74.174403 14.85242363 74.174403 14.85242363 75.10652161 16.24263 C77.05021516 19.14740215 78.97776418 22.06249756 80.90527344 24.97802734 C82.18094585 26.88821432 83.45762971 28.79772625 84.73535156 30.70654297 C91.35719063 40.61833137 97.88945653 50.58619376 104.33789062 60.61157227 C107.57488789 65.63483707 110.89704514 70.60107847 114.22558594 75.56396484 C115.98328253 78.1858273 117.7257344 80.81714582 119.45996094 83.45458984 C119.91105225 84.13827637 120.36214355 84.82196289 120.8269043 85.52636719 C121.68982818 86.83478881 122.55016852 88.14491931 123.4074707 89.45703125 C126.10152456 93.80020762 126.10152456 93.80020762 129.71777344 97.29052734 C132.19367502 97.8582887 132.19367502 97.8582887 134.71777344 97.29052734 C141.3004913 91.78369455 145.78524855 82.64912327 150.24145508 75.42016602 C153.2479815 70.54741494 156.40850408 65.83490385 159.71557617 61.16162109 C163.50144334 55.7327956 167.13361936 50.19994785 170.79327393 44.68560791 C174.6458191 38.88425824 178.51306897 33.09266923 182.37780762 27.29943848 C183.23885501 26.00853414 184.09963601 24.71745206 184.96008301 23.42614746 C187.41075552 19.74899459 189.87309109 16.0799342 192.34277344 12.41552734 C193.23706055 11.07216309 193.23706055 11.07216309 194.14941406 9.70166016 C194.70048828 8.88793945 195.2515625 8.07421875 195.81933594 7.23583984 C196.28678223 6.53990723 196.75422852 5.84397461 197.23583984 5.12695312 C199.71026976 2.06061674 201.58781493 0.44107511 205.57705688 -0.09042358 C206.68133026 -0.09281036 207.78560364 -0.09519714 208.92333984 -0.09765625 C210.17788971 -0.10711273 211.43243958 -0.11656921 212.7250061 -0.12631226 C214.08978594 -0.12094356 215.45456289 -0.11479086 216.81933594 -0.10791016 C218.22130484 -0.10993151 219.62327273 -0.11284346 221.02523804 -0.11660767 C223.9589848 -0.12102529 226.89245707 -0.11461645 229.82617188 -0.10058594 C233.59040887 -0.08346233 237.35400566 -0.09335817 241.11821938 -0.11130333 C244.01096446 -0.12212967 246.903557 -0.11870078 249.79630661 -0.11091995 C251.18461559 -0.10891637 252.57293834 -0.11138278 253.96123123 -0.11835861 C255.89781691 -0.12595672 257.83445108 -0.11232716 259.77099609 -0.09765625 C261.42501938 -0.09407608 261.42501938 -0.09407608 263.11245728 -0.09042358 C264.40208878 0.09814713 264.40208878 0.09814713 265.71777344 0.29052734 C267.89753089 3.56016353 267.96808049 4.47469322 267.96945572 8.25841522 C267.97467121 9.29013997 267.97988671 10.32186471 267.98526025 11.38485384 C267.9807988 12.5218987 267.97633736 13.65894357 267.97174072 14.83044434 C267.9748607 16.03553886 267.97798069 17.24063338 267.98119521 18.48224592 C267.98780774 21.83321914 267.9854069 25.18396922 267.97922277 28.53492904 C267.9747093 32.14642731 267.98167654 35.75790567 267.98718262 39.36940002 C267.99609011 46.44667395 267.99414859 53.52390554 267.98835734 60.60118115 C267.98384617 66.35146948 267.98322557 72.10174593 267.98540497 77.85203552 C267.98571143 78.66949445 267.9860179 79.48695338 267.98633365 80.32918379 C267.98697308 81.989677 267.98762151 83.6501702 267.98827884 85.3106634 C267.9939861 100.8923018 267.98741803 116.47391669 267.9766781 132.05555123 C267.96774223 145.43418135 267.96929416 158.81277676 267.97851562 172.19140625 C267.98921126 187.71612701 267.99343674 203.24082716 267.9872911 218.76555109 C267.98665398 220.42004045 267.98602524 222.0745298 267.98540497 223.72901917 C267.98509642 224.54312459 267.98478787 225.35723002 267.98446997 226.19600531 C267.9827409 231.94142047 267.98566267 237.68682258 267.99036407 243.43223572 C267.99596507 250.43105756 267.99447297 257.42983453 267.98380259 264.42865121 C267.9785353 268.00163899 267.97650701 271.57455186 267.98310089 275.14753914 C267.99013092 279.01527219 267.98175424 282.88288175 267.97174072 286.75061035 C267.97620217 287.88765522 267.98066361 289.02470008 267.98526025 290.19620085 C267.98004475 291.22792559 267.97482926 292.25965034 267.96945572 293.32263947 C267.96913101 294.21601407 267.96880631 295.10938867 267.96847177 296.02983522 C267.71777344 298.29052734 267.71777344 298.29052734 265.71777344 301.29052734 C263.28208923 301.65802002 263.28208923 301.65802002 260.18237305 301.64697266 C258.44563576 301.6514743 258.44563576 301.6514743 256.67381287 301.65606689 C255.41859329 301.64372009 254.16337372 301.63137329 252.87011719 301.61865234 C251.58794815 301.61677917 250.30577911 301.61490601 248.98475647 301.61297607 C246.27022731 301.60837124 243.55599452 301.59393779 240.84155273 301.57177734 C237.3553465 301.54346649 233.86937359 301.53256335 230.38306332 301.52809525 C227.06621168 301.52294896 223.74944092 301.50840879 220.43261719 301.49365234 C218.54675148 301.48727753 218.54675148 301.48727753 216.62278748 301.48077393 C214.89077843 301.46636261 214.89077843 301.46636261 213.1237793 301.45166016 C211.59061317 301.44141815 211.59061317 301.44141815 210.026474 301.43096924 C207.71777344 301.29052734 207.71777344 301.29052734 206.71777344 300.29052734 C206.622644 297.61264761 206.59222065 294.96063865 206.60424805 292.2824707 C206.60410202 291.44351761 206.60395599 290.60456451 206.60380554 289.7401886 C206.60450494 286.9535569 206.61229858 284.16699118 206.62011719 281.38037109 C206.62198127 279.45365943 206.62340522 277.52694729 206.62440491 275.60023499 C206.62823085 270.51865337 206.63806178 265.43710015 206.64910889 260.35552979 C206.65932137 255.174361 206.66390218 249.99318765 206.66894531 244.81201172 C206.67968398 234.63817109 206.69676131 224.46435157 206.71777344 214.29052734 C203.04686243 215.51416435 202.58645484 216.95392624 200.88893127 220.28027344 C200.54241013 220.98361816 200.19588898 221.68696289 199.83886719 222.41162109 C199.47047226 223.13889404 199.10207733 223.86616699 198.72251892 224.61547852 C197.9340323 226.17407559 197.14985716 227.73485984 196.36956787 229.2975769 C194.35141176 233.33698305 192.2997329 237.35933439 190.25292969 241.38427734 C189.85460937 242.16975449 189.45628906 242.95523163 189.04589844 243.76451111 C184.82932385 252.06984701 180.46192916 260.27328951 175.71777344 268.29052734 C174.73357422 269.96308594 174.73357422 269.96308594 173.72949219 271.66943359 C165.61746775 284.65842664 152.64571668 295.94860479 137.71777344 300.29052734 C125.92980046 302.51467319 114.62627653 301.51935515 104.15527344 295.29052734 C87.09552373 283.54044037 76.71799714 265.96811856 72.40527344 245.91552734 C72.15112188 244.37778209 71.92116899 242.83580522 71.71777344 241.29052734 C71.55341797 240.08203125 71.55341797 240.08203125 71.38574219 238.84912109 C68.28377515 212.42036194 76.04625427 192.95890855 88.71777344 170.29052734 C90.01413352 167.96836143 91.28230662 165.63964135 92.53027344 163.29052734 C92.99046875 162.44490234 93.45066406 161.59927734 93.92480469 160.72802734 C95.27964099 156.56340738 94.26046183 153.44560723 92.44042969 149.57177734 C89.22116215 144.17855738 85.85268736 139.00658173 82.14746094 133.93505859 C78.36701566 128.70158579 74.75740233 123.38041005 71.25292969 117.95849609 C70.80218582 117.262211 70.35144196 116.5659259 69.88703918 115.84854126 C68.04126775 112.99228122 66.19960084 110.13349352 64.36694336 107.26879883 C63.0028259 105.13977336 61.6287039 103.01750111 60.25292969 100.89599609 C59.84043472 100.2451152 59.42793976 99.59423431 59.00294495 98.92362976 C56.63448646 95.18267441 56.63448646 95.18267441 52.71777344 93.29052734 C52.71961702 94.34943082 52.72146061 95.40833429 52.72336006 96.49932575 C52.76771307 122.23697046 52.80060303 147.97461022 52.82139778 173.71228504 C52.83172065 186.15870838 52.84580024 198.60510651 52.86865234 211.05151367 C52.88855533 221.89683365 52.90148252 232.74213537 52.90595043 243.58747309 C52.90856305 249.33266406 52.91472477 255.0778028 52.92923355 260.82297707 C52.94276866 266.22617322 52.94700435 271.62929544 52.9439888 277.03250694 C52.94454079 279.01953406 52.94854239 281.00656355 52.95618439 282.99357605 C52.96608196 285.69887842 52.96376138 288.40389875 52.95828247 291.10920715 C52.96410815 291.90200398 52.96993384 292.6948008 52.97593606 293.51162177 C52.95501406 297.31317857 52.87962625 299.04774812 50.71777344 302.29052734 C48.32678223 302.66474915 48.32678223 302.66474915 45.29003906 302.6628418 C44.15546265 302.66907059 43.02088623 302.67529938 41.85192871 302.68171692 C40.0066156 302.6679023 40.0066156 302.6679023 38.12402344 302.65380859 C36.23762146 302.65455635 36.23762146 302.65455635 34.31311035 302.65531921 C31.64967483 302.65297486 28.98702898 302.64479328 26.32373047 302.62670898 C22.9070389 302.60402125 19.49078943 302.60347712 16.07404327 302.61022663 C12.81983656 302.61436831 9.56570865 302.60239684 6.31152344 302.59130859 C4.46621033 302.5926757 4.46621033 302.5926757 2.58361816 302.59407043 C1.44904175 302.58453842 0.31446533 302.57500641 -0.85449219 302.56518555 C-1.85661743 302.56057816 -2.85874268 302.55597076 -3.89123535 302.55122375 C-6.28222656 302.29052734 -6.28222656 302.29052734 -8.28222656 300.29052734 C-8.53292489 298.13364697 -8.53292489 298.13364697 -8.53390884 295.39604187 C-8.53912434 294.35524129 -8.54433983 293.31444071 -8.54971337 292.24210072 C-8.54525193 291.08978805 -8.54079049 289.93747538 -8.53619385 288.75024414 C-8.53931383 287.53304782 -8.54243381 286.3158515 -8.54564834 285.06177044 C-8.55226814 281.67240362 -8.54985489 278.28325692 -8.5436759 274.89390326 C-8.53916706 271.24286974 -8.54612734 267.59185604 -8.55163574 263.94082642 C-8.56054822 256.78420802 -8.55859951 249.62763147 -8.55281046 242.4710114 C-8.54830125 236.65680805 -8.54767785 230.84261646 -8.54985809 225.02841187 C-8.55016456 224.20220264 -8.55047103 223.37599342 -8.55078678 222.52474755 C-8.5514262 220.84653608 -8.55207463 219.16832461 -8.55273196 217.49011314 C-8.55844069 201.73825876 -8.55186887 185.98642763 -8.54113123 170.23457706 C-8.53219522 156.70666603 -8.53374711 143.17878932 -8.54296875 129.65087891 C-8.55366182 113.95697495 -8.55789131 98.26309139 -8.55174422 82.5691843 C-8.5511071 80.89700381 -8.55047836 79.22482332 -8.54985809 77.55264282 C-8.54939527 76.31839263 -8.54939527 76.31839263 -8.54892309 75.0592081 C-8.54719325 69.24921442 -8.55011745 63.43923363 -8.5548172 57.62924194 C-8.56041535 50.5527801 -8.55893214 43.47636265 -8.54825571 36.39990592 C-8.54298456 32.78654393 -8.54096664 29.17325607 -8.54755402 25.55989456 C-8.55457412 21.65015759 -8.54621548 17.7405431 -8.53619385 13.83081055 C-8.54065529 12.67849788 -8.54511673 11.52618521 -8.54971337 10.33895397 C-8.54449788 9.29815339 -8.53928238 8.25735281 -8.53390884 7.18501282 C-8.53358414 6.28160314 -8.53325943 5.37819345 -8.53292489 4.44740772 C-7.9411784 -0.64367684 -4.20895201 0.02747888 0 0 Z M204.71777344 85.29052734 C199.93824058 91.26806787 195.53532108 97.39026469 191.34277344 103.79052734 C190.10552137 105.6623018 188.86719509 107.53336652 187.62792969 109.40380859 C186.9861377 110.3727002 186.3443457 111.3415918 185.68310547 112.33984375 C182.41723155 117.24311731 179.09913243 122.11052519 175.78027344 126.97802734 C170.83501328 134.23452175 165.89772572 141.49615318 160.97949219 148.77099609 C160.4865567 149.50009689 159.99362122 150.22919769 159.48574829 150.98039246 C156.98267927 154.6832862 154.48066036 158.38688654 151.97949219 162.09106445 C147.31887614 168.99007483 142.63850999 175.87270573 137.89208984 182.71313477 C126.64501254 198.95342376 117.90585163 212.85042064 119.71777344 233.29052734 C120.8476287 238.67808577 122.47413211 243.54985555 126.46777344 247.47802734 C130.34847139 249.64226274 133.37583837 250.44784459 137.71777344 249.29052734 C151.79255419 241.26379561 160.35234732 222.80065473 168.62890625 209.49853516 C170.96666927 205.90828199 173.42292692 202.4145806 175.88821411 198.91119385 C180.61167491 192.14529383 185.12199422 185.23198959 189.67163086 178.34863281 C190.91675053 176.46746029 192.16482858 174.58824272 193.41577148 172.7109375 C195.23791564 169.97617526 197.05105452 167.23563819 198.86230469 164.49365234 C199.69976982 163.2419223 199.69976982 163.2419223 200.55415344 161.96490479 C201.07196884 161.17678406 201.58978424 160.38866333 202.12329102 159.57666016 C202.57738846 158.89178528 203.0314859 158.2069104 203.49934387 157.50128174 C206.17358026 152.64906868 206.96691222 148.32608344 206.94482422 142.82617188 C206.94467316 141.56531769 206.94452209 140.3044635 206.94436646 139.00540161 C206.93415561 137.64471272 206.92372366 136.28402547 206.91308594 134.92333984 C206.90935168 133.51944175 206.90650666 132.11554104 206.9045105 130.7116394 C206.89690648 127.03239637 206.87728614 123.35331346 206.85510254 119.6741333 C206.83457415 115.91347417 206.82549388 112.15278896 206.81542969 108.39208984 C206.79403686 101.02482968 206.75994042 93.65770102 206.71777344 86.29052734 C205.72777344 85.79552734 205.72777344 85.79552734 204.71777344 85.29052734 Z " fill="#ffffff" transform="translate(31.2822265625,18.70947265625)"/>
<path d="M0 0 C0.91760605 -0.00845947 1.8352121 -0.01691895 2.78062439 -0.02563477 C4.28823837 -0.01652573 4.28823837 -0.01652573 5.8263092 -0.00723267 C7.4173774 -0.0151181 7.4173774 -0.0151181 9.04058838 -0.02316284 C12.56444346 -0.03641328 16.08784948 -0.02759606 19.61170959 -0.01748657 C22.07057786 -0.0195084 24.52944555 -0.02242074 26.98831177 -0.02618408 C32.15930349 -0.03061635 37.33014016 -0.02415665 42.50111389 -0.01016235 C49.07610939 0.00677753 55.65073338 -0.00280862 62.22571468 -0.02087975 C67.31608777 -0.03182416 72.40637585 -0.0282203 77.49675179 -0.02049637 C79.9168407 -0.01851566 82.33693771 -0.02087741 84.75701714 -0.02793503 C115.00175531 -0.09667123 147.20970912 2.93218088 170.52186584 24.38095093 C171.36233459 25.12989624 172.20280334 25.87884155 173.06874084 26.65048218 C179.62761379 32.80190998 184.23257077 39.50442028 188.52186584 47.38095093 C188.99366272 48.24075562 189.46545959 49.1005603 189.95155334 49.98641968 C195.65033926 61.4016896 198.49867857 74.32599482 199.64979553 86.96664429 C199.77401194 88.3132899 199.77401194 88.3132899 199.90073776 89.68714046 C200.83886396 100.82606431 200.81086461 111.96440405 200.78749084 123.13485718 C200.78884343 125.45589742 200.79078885 127.77693739 200.79328918 130.09797668 C200.79621201 134.92597187 200.7920351 139.75389228 200.78260803 144.58187866 C200.7712089 150.71237161 200.77779432 156.84268943 200.78975296 162.973176 C200.79704355 167.75467708 200.79465102 172.53613789 200.78949738 177.3176403 C200.78818103 179.57584594 200.78973622 181.83405546 200.79445648 184.09225655 C200.84876756 217.35609201 198.28529734 249.47786764 173.83436584 274.63095093 C153.85717182 294.27274275 125.00988754 302.74826475 97.52113342 302.63973999 C96.40078705 302.64324463 95.28044067 302.64674927 94.12614441 302.65036011 C90.47282981 302.65906784 86.81971318 302.6533718 83.16639709 302.64657593 C80.61143965 302.64792468 78.05648245 302.64986697 75.50152588 302.65237427 C70.17356154 302.65530974 64.84566686 302.65126849 59.51771545 302.64169312 C53.35821132 302.63075119 47.19883903 302.63438445 41.03933793 302.64534593 C35.09499752 302.65549991 29.15069818 302.65444758 23.20635033 302.64858246 C20.68206959 302.64724602 18.15778549 302.64889348 15.63350868 302.65354156 C12.12199941 302.65859445 8.61074834 302.65091684 5.09925842 302.63973999 C4.05153763 302.64378845 3.00381683 302.64783691 1.92434692 302.65200806 C0.97275696 302.64636841 0.02116699 302.64072876 -0.95925903 302.63491821 C-1.78858035 302.63416416 -2.61790167 302.63341011 -3.47235394 302.63263321 C-5.47813416 302.38095093 -5.47813416 302.38095093 -7.47813416 300.38095093 C-7.72998315 298.23163325 -7.72998315 298.23163325 -7.73260975 295.50487614 C-7.73844194 294.46817565 -7.74427414 293.43147516 -7.75028306 292.36335951 C-7.74650374 291.21561991 -7.74272442 290.06788031 -7.73883057 288.88536072 C-7.74265611 287.67295351 -7.74648166 286.46054631 -7.75042313 285.2113995 C-7.758986 281.83536844 -7.75850832 278.45955401 -7.75424254 275.08352888 C-7.75178462 271.44678738 -7.7607778 267.81007193 -7.76828003 264.17333984 C-7.78105521 257.04446395 -7.78281722 249.91562567 -7.78047977 242.78674025 C-7.77869958 236.99447455 -7.7804398 231.20222031 -7.78470421 225.40995598 C-7.78559699 224.17523827 -7.78559699 224.17523827 -7.78650781 222.91557677 C-7.78771951 221.24356803 -7.78893365 219.57155929 -7.79015019 217.89955055 C-7.8010366 202.20537219 -7.79885804 186.5112153 -7.79276534 170.81703573 C-7.78759524 156.44730747 -7.79885213 142.07764698 -7.81786356 127.70793212 C-7.83721742 112.96683612 -7.84550228 98.22577222 -7.84174031 83.48466343 C-7.83982452 75.20315283 -7.8423524 66.92169993 -7.85645485 58.64019966 C-7.86833844 51.59010267 -7.86980768 44.54009887 -7.85766468 37.49000067 C-7.8517546 33.8906559 -7.85073481 30.29148185 -7.86266708 26.69214821 C-7.87543406 22.79585469 -7.86511204 18.89982305 -7.85235596 15.00352478 C-7.85973024 13.8580159 -7.86710453 12.71250702 -7.87470227 11.53228575 C-7.86749573 10.49297752 -7.86028919 9.45366928 -7.85286427 8.38286686 C-7.85291928 7.48287466 -7.8529743 6.58288246 -7.85303098 5.65561777 C-7.08525963 0.9972053 -4.36164713 0.00618847 0 0 Z M55.52186584 54.38095093 C55.62895505 79.65816798 55.74168909 104.93535434 55.8612051 130.21251583 C55.91656163 141.94825669 55.97004755 153.68400059 56.0191803 165.41976929 C56.06199245 175.6446884 56.10826282 185.8695849 56.15874439 196.09446913 C56.18536933 201.51204286 56.21022291 206.92961203 56.23093987 212.34721184 C56.25046985 217.44015613 56.2746025 222.5330573 56.30235672 227.62596321 C56.3117465 229.50093938 56.31941479 231.37592503 56.32528496 233.25091553 C56.33351355 235.7992269 56.34778074 238.34743267 56.36364746 240.89570618 C56.36462557 241.6476373 56.36560367 242.39956843 56.36661142 243.17428535 C56.09411923 246.56492721 56.09411923 246.56492721 57.52186584 249.38095093 C90.3474215 251.45686815 90.3474215 251.45686815 119.67811584 239.07626343 C130.35381609 229.26004753 135.98460865 216.7202481 136.6202774 202.12071228 C136.66598881 199.35487784 136.67985938 196.59052457 136.68299866 193.8243103 C136.68796356 192.77302948 136.69292847 191.72174866 136.69804382 190.63861084 C136.71262371 187.16730081 136.71946194 183.69603653 136.72499084 180.22470093 C136.73074748 177.80058797 136.73650515 175.37647501 136.74226379 172.95236206 C136.75276315 167.86833485 136.75861221 162.78432339 136.76210022 157.70028687 C136.76757046 151.21562351 136.79157173 144.73117166 136.82007217 138.2465744 C136.83878765 133.23625094 136.84390897 128.2259774 136.8454361 123.21562195 C136.84844509 120.82684681 136.85641363 118.43807218 136.86962128 116.04933167 C137.07808231 88.55940951 137.07808231 88.55940951 123.64295959 65.42001343 C110.72328016 52.99999011 93.916504 53.85252051 77.20936584 54.13095093 C75.10065892 54.15105392 72.99193341 54.16929794 70.88319397 54.18563843 C65.76228526 54.22931575 60.64228497 54.29813233 55.52186584 54.38095093 Z " fill="#ffffff" transform="translate(576.4781341552734,18.619049072265625)"/>
<path d="M0 0 C1.04175243 -0.00467997 1.04175243 -0.00467997 2.10455036 -0.00945449 C4.44307635 -0.01746291 6.7813449 -0.01109992 9.11987305 -0.00482178 C10.79178012 -0.00753038 12.463686 -0.01109058 14.1355896 -0.01544189 C18.68507673 -0.02458372 23.23447347 -0.02101428 27.78396225 -0.01468372 C32.53696696 -0.00963298 37.28996375 -0.01431259 42.04296875 -0.01745605 C50.02597448 -0.02109841 58.00894324 -0.01628955 65.99194336 -0.0067749 C75.23166904 0.00411016 84.47130647 0.00058478 93.71103001 -0.01042771 C101.63291208 -0.01949293 109.55476752 -0.02078963 117.4766531 -0.01555037 C122.21293523 -0.01242645 126.94917583 -0.01203288 131.68545532 -0.01862335 C136.13741834 -0.02438508 140.58926717 -0.02042154 145.0412178 -0.00883484 C146.67873571 -0.00618195 148.31626316 -0.00696401 149.95377731 -0.01136017 C152.18204412 -0.01679242 154.40994064 -0.01001017 156.63818359 0 C157.88738083 0.00075405 159.13657806 0.0015081 160.42362976 0.002285 C163.3190918 0.25396729 163.3190918 0.25396729 165.3190918 2.25396729 C165.57305908 4.45513916 165.57305908 4.45513916 165.57788086 7.22271729 C165.58418518 8.25718994 165.5904895 9.2916626 165.59698486 10.35748291 C165.59091217 12.03874268 165.59091217 12.03874268 165.5847168 13.75396729 C165.58663025 14.90058838 165.5885437 16.04720947 165.59051514 17.22857666 C165.59187801 19.65631326 165.58817447 22.08405713 165.57983398 24.51177979 C165.56913617 28.23850801 165.57972611 31.96475414 165.5925293 35.69146729 C165.59120772 38.04563502 165.58864537 40.39980246 165.5847168 42.75396729 C165.58876526 43.87480713 165.59281372 44.99564697 165.59698486 46.15045166 C165.58752838 47.70216064 165.58752838 47.70216064 165.57788086 49.28521729 C165.57628967 50.19851807 165.57469849 51.11181885 165.57305908 52.05279541 C165.3190918 54.25396729 165.3190918 54.25396729 163.3190918 56.25396729 C161.38632011 56.50006294 161.38632011 56.50006294 158.97848511 56.49447632 C157.61126816 56.49860031 157.61126816 56.49860031 156.21643066 56.50280762 C155.21374146 56.49561707 154.21105225 56.48842651 153.17797852 56.48101807 C152.12430084 56.48131012 151.07062317 56.48160217 149.98501587 56.48190308 C146.48952096 56.48050567 142.99423714 56.46492505 139.4987793 56.44927979 C137.08025224 56.44555112 134.66172368 56.44270346 132.24319458 56.44070435 C125.86777601 56.43305637 119.4924481 56.41339787 113.11706543 56.39129639 C106.61540961 56.37086302 100.11373919 56.361708 93.61206055 56.35162354 C80.84769888 56.33015309 68.08340015 56.29638585 55.3190918 56.25396729 C55.42644018 64.71172942 55.53904186 73.16939802 55.65843105 81.62699795 C55.71369595 85.55381342 55.76712149 89.48063629 55.81640625 93.40753174 C55.86399741 97.19417571 55.91633804 100.98072645 55.97203255 104.7672596 C55.99247998 106.21498366 56.01118904 107.66273332 56.02816582 109.11050224 C56.05215688 111.13160888 56.08279255 113.15263339 56.11376953 115.17364502 C56.13708595 116.90239113 56.13708595 116.90239113 56.16087341 118.6660614 C56.02791812 121.18367318 56.02791812 121.18367318 57.3190918 122.25396729 C59.86376416 122.36837293 62.38241434 122.4187974 64.92822266 122.42755127 C66.123312 122.43758179 66.123312 122.43758179 67.34254456 122.44781494 C69.07826627 122.46189794 70.81400686 122.47378155 72.549757 122.48376274 C75.29345931 122.50011781 78.03702149 122.52335247 80.78065491 122.54866028 C88.58335438 122.61959268 96.38611111 122.67962666 104.18896484 122.73077393 C108.95585685 122.76250398 113.72258861 122.80376441 118.48935127 122.85096931 C120.3102487 122.86702612 122.1311831 122.87933059 123.95213127 122.88787651 C126.4951092 122.89998316 129.03770798 122.92411263 131.58056641 122.95098877 C132.33856537 122.95157791 133.09656433 122.95216705 133.87753296 122.95277405 C139.09119618 123.02607166 139.09119618 123.02607166 141.3190918 125.25396729 C141.57305908 127.41717529 141.57305908 127.41717529 141.57788086 130.13092041 C141.58418518 131.14537231 141.5904895 132.15982422 141.59698486 133.20501709 C141.59091217 134.85346619 141.59091217 134.85346619 141.5847168 136.53521729 C141.58663025 137.65964233 141.5885437 138.78406738 141.59051514 139.94256592 C141.59187797 142.32322411 141.58817474 144.70388972 141.57983398 147.08453369 C141.56913609 150.73883682 141.57972624 154.39264829 141.5925293 158.04693604 C141.59120772 160.35553088 141.58864536 162.66412541 141.5847168 164.97271729 C141.58876526 166.07168335 141.59281372 167.17064941 141.59698486 168.30291748 C141.58752838 169.82459534 141.58752838 169.82459534 141.57788086 171.37701416 C141.57628967 172.27255005 141.57469849 173.16808594 141.57305908 174.09075928 C141.3190918 176.25396729 141.3190918 176.25396729 139.3190918 178.25396729 C136.6708081 178.47141475 134.12392378 178.56536722 131.47290039 178.57281494 C130.25814278 178.58788338 130.25814278 178.58788338 129.0188446 178.60325623 C126.33508023 178.63421133 123.65141616 178.65115739 120.9675293 178.66802979 C119.10949839 178.68673154 117.25147605 178.70630419 115.39346313 178.72671509 C110.49773201 178.77814725 105.60197332 178.8177135 100.70611572 178.8548584 C94.83482646 178.90185346 88.96367516 178.96349857 83.09249878 179.02270508 C74.16808513 179.11105236 65.24369974 179.18071996 56.3190918 179.25396729 C56.3190918 201.03396729 56.3190918 222.81396729 56.3190918 245.25396729 C64.96225586 245.23656494 64.96225586 245.23656494 73.7800293 245.21881104 C77.48966588 245.21368533 81.19929793 245.20887027 84.90893555 245.20513916 C90.76229794 245.19922343 96.61564432 245.19232411 102.46899414 245.17852783 C139.82095921 245.09292594 139.82095921 245.09292594 155.9831543 245.69537354 C157.0473056 245.73436264 158.11145691 245.77335175 159.20785522 245.81352234 C166.18670713 246.12158262 166.18670713 246.12158262 167.3190918 247.25396729 C167.42299117 248.90041016 167.45761762 250.5512846 167.46435547 252.20098877 C167.47073532 253.25555771 167.47711517 254.31012665 167.48368835 255.39665222 C167.48535759 257.11846458 167.48535759 257.11846458 167.48706055 258.87506104 C167.49038895 260.04529312 167.49371735 261.21552521 167.49714661 262.42121887 C167.50222089 264.90200404 167.50455478 267.38279607 167.50439453 269.86358643 C167.50658037 273.67156148 167.52472931 277.47924671 167.54370117 281.28717041 C167.54663504 283.69146629 167.54861988 286.09576355 167.54956055 288.50006104 C167.55674606 289.64591171 167.56393158 290.79176239 167.57133484 291.97233582 C167.56825821 293.03005692 167.56518158 294.08777802 167.56201172 295.17755127 C167.56343674 296.11163315 167.56486176 297.04571503 167.56632996 298.00810242 C167.3190918 300.25396729 167.3190918 300.25396729 165.3190918 302.25396729 C162.4108057 302.50844288 162.4108057 302.50844288 158.60694885 302.5146637 C157.56012944 302.52040202 157.56012944 302.52040202 156.49216217 302.52625626 C154.14216018 302.53661566 151.79240118 302.53258863 149.44238281 302.52862549 C147.76224541 302.53297035 146.08210999 302.53815274 144.40197754 302.54411316 C139.8297041 302.55753887 135.25751314 302.55807787 130.68522382 302.55554986 C126.87290589 302.55448254 123.06060481 302.55935737 119.24829048 302.56415528 C110.25682284 302.57526287 101.26539697 302.57568088 92.27392578 302.56964111 C82.98761198 302.56359936 73.70144962 302.57591459 64.41516167 302.59721118 C56.45164857 302.61480496 48.48818377 302.62083206 40.52465194 302.61757344 C35.76427753 302.61575685 31.00401113 302.61843403 26.24365425 302.63228798 C21.76784763 302.64482559 17.29227772 302.64296101 12.81647491 302.62987709 C11.17131153 302.62750283 9.52613171 302.63027622 7.88098717 302.63850021 C5.63978617 302.6488982 3.3993897 302.64092403 1.15821838 302.62818909 C-0.7252563 302.6284407 -0.7252563 302.6284407 -2.64678097 302.6286974 C-5.6809082 302.25396729 -5.6809082 302.25396729 -7.34712052 301.0431664 C-9.11960166 298.66548536 -9.05581879 297.20444625 -9.05563831 294.25205135 C-9.06284486 293.21274312 -9.0700514 292.17343489 -9.07747632 291.10263246 C-9.07010204 289.95712358 -9.06272775 288.8116147 -9.05513 287.63139343 C-9.05910441 286.41742624 -9.06307882 285.20345904 -9.06717366 283.95270497 C-9.07515188 280.57689487 -9.06961429 277.20158983 -9.05842316 273.82582057 C-9.04960013 270.18775237 -9.05801912 266.5497194 -9.06428528 262.91165161 C-9.07378615 255.78255312 -9.06716237 248.65355566 -9.05502234 241.52446466 C-9.04142034 233.22874254 -9.04303858 224.93304465 -9.04515567 216.63731421 C-9.04834738 201.83999614 -9.03666699 187.04272617 -9.01708984 172.24542236 C-8.99808146 157.87431371 -8.99100296 143.50326144 -8.99658203 129.13214111 C-9.00263432 113.49572543 -9.00247313 97.85933457 -8.9910962 82.22292095 C-8.98988886 80.55693472 -8.98868288 78.89094848 -8.98747826 77.22496223 C-8.98687472 76.40518787 -8.98627118 75.58541351 -8.98564935 74.7407975 C-8.98176369 68.95283572 -8.98216632 63.16488316 -8.9840641 57.3769207 C-8.98618211 50.32792681 -8.98099192 43.27898239 -8.96645055 36.23000246 C-8.959187 32.63081323 -8.95514615 29.03169621 -8.95969391 25.43250084 C-8.9644951 21.53813752 -8.95389258 17.64390654 -8.94160461 13.7495575 C-8.94538394 12.60181789 -8.94916326 11.45407829 -8.95305711 10.2715587 C-8.94722492 9.23485822 -8.94139272 8.19815773 -8.9353838 7.13004208 C-8.93408363 5.78029731 -8.93408363 5.78029731 -8.9327572 4.40328497 C-8.3189934 -0.83466874 -4.28586989 0.00258707 0 0 Z " fill="#ffffff" transform="translate(818.680908203125,18.74603271484375)"/>
<path d="M0 0 C2.89756089 2.5422867 5.6656086 5.17732735 8.390625 7.90234375 C8.36742187 6.91492188 8.34421875 5.9275 8.3203125 4.91015625 C8.30226563 3.62882812 8.28421875 2.3475 8.265625 1.02734375 C8.24242187 -0.24882812 8.21921875 -1.525 8.1953125 -2.83984375 C8.390625 -6.09765625 8.390625 -6.09765625 10.390625 -8.09765625 C12.89672852 -8.34057617 12.89672852 -8.34057617 16.01953125 -8.328125 C17.13650391 -8.32619141 18.25347656 -8.32425781 19.40429688 -8.32226562 C21.1609668 -8.30389648 21.1609668 -8.30389648 22.953125 -8.28515625 C24.12810547 -8.28451172 25.30308594 -8.28386719 26.51367188 -8.28320312 C35.25050359 -8.23777766 35.25050359 -8.23777766 36.390625 -7.09765625 C36.63775406 -4.74777453 36.8142025 -2.42862288 36.94262695 -0.07104492 C36.98466657 0.68069158 37.02670618 1.43242807 37.07001972 2.20694447 C37.61042118 12.95604495 37.55507516 23.7167876 37.55859375 34.4765625 C37.56181592 36.81769327 37.56518067 39.15882385 37.56867981 41.49995422 C37.57462678 46.37700874 37.57652408 51.25404564 37.57592773 56.13110352 C37.57582584 62.34748531 37.5895263 68.56375359 37.60669994 74.78010845 C37.61786752 79.60425832 37.61984556 84.42838103 37.61931801 89.2525425 C37.62048909 91.5436219 37.6248612 93.8347022 37.63265038 96.12576866 C37.70219297 118.6719134 37.00392315 139.60295297 20.890625 157.08984375 C6.87218952 170.49694896 -12.05042586 173.36507831 -30.6796875 173.1171875 C-46.08732599 172.63737516 -62.1321938 168.26906829 -73.28515625 157.24609375 C-78.85170723 151.16846985 -82.78028904 144.06272478 -82.671875 135.71484375 C-82.66285156 134.81378906 -82.65382813 133.91273438 -82.64453125 132.984375 C-82.63292969 132.29730469 -82.62132812 131.61023438 -82.609375 130.90234375 C-78.25183029 128.72357139 -72.42553024 129.7788457 -67.59570312 129.87841797 C-65.77213533 129.90038326 -63.94809414 129.85950803 -62.125 129.8125 C-59.04171731 129.8393445 -56.54223015 129.94182203 -53.609375 130.90234375 C-51.74532814 133.04882196 -50.7303569 135.08114056 -49.59375 137.6796875 C-47.87524888 141.55995392 -45.35745431 143.13505703 -41.5625 144.80078125 C-30.08646736 148.88864909 -18.11716363 147.84497751 -7.20703125 142.7890625 C-0.34012232 138.91571454 2.80709771 133.2192621 5.390625 125.90234375 C6.43905377 120.56602964 6.51340494 115.37612784 6.453125 109.96484375 C6.44861328 109.18560547 6.44410156 108.40636719 6.43945312 107.60351562 C6.42779408 105.70309107 6.40986377 103.80270669 6.390625 101.90234375 C5.5553125 102.78986328 5.5553125 102.78986328 4.703125 103.6953125 C-5.38969736 114.14615728 -15.8047754 119.79783647 -30.69042969 120.32641602 C-46.73304847 120.43180828 -60.80567955 115.36934064 -72.43359375 104.16796875 C-85.19552363 90.87906511 -90.97066622 73.45186892 -90.71411133 55.18359375 C-89.84899051 36.34049605 -84.38477944 15.97306083 -70.421875 2.58984375 C-50.57985118 -13.87768622 -20.52687257 -16.50139307 0 0 Z M-49.6328125 24.62109375 C-58.79785133 35.19892513 -60.4914479 49.43068486 -59.609375 62.90234375 C-57.95616899 72.17071129 -53.5873175 79.6221955 -46.609375 85.90234375 C-45.8875 86.58296875 -45.165625 87.26359375 -44.421875 87.96484375 C-36.32477256 93.54284766 -28.34595301 95.04023299 -18.609375 93.90234375 C-9.99034278 92.0007557 -3.10162565 88.01599649 1.921875 80.66015625 C9.34871316 67.83590663 9.81002 54.07600178 6.390625 39.90234375 C3.20561359 30.09491239 -0.45215213 22.8219472 -9.796875 18.02734375 C-23.84908707 11.50849882 -38.46750537 14.04758735 -49.6328125 24.62109375 Z " fill="#ffffff" transform="translate(705.609375,370.09765625)"/>
<path d="M0 0 C3.19493968 3.07069202 6.11003453 6.174262 8.0625 10.1796875 C8.86540618 12.17870374 8.86540618 12.17870374 11 13 C11.2475 12.2678125 11.495 11.535625 11.75 10.78125 C15.05570853 3.42604852 22.12530835 -1.77158636 29.328125 -5.00390625 C42.76230651 -10.01226339 56.91899394 -10.95688756 70.25 -4.875 C78.81082396 -0.16173737 84.76970698 6.75985951 88 16 C89.64592758 22.64359375 90.29461569 28.97984795 90.2746582 35.80834961 C90.27976913 36.7315802 90.28488007 37.65481079 90.29014587 38.60601807 C90.30391411 41.62152798 90.30309633 44.63680639 90.30078125 47.65234375 C90.30467215 49.76078882 90.30900763 51.86923311 90.31376648 53.97767639 C90.32119884 58.37780309 90.32095687 62.77784947 90.31567383 67.17797852 C90.30985012 72.82289258 90.3268943 78.46748163 90.3500185 84.11234188 C90.36471933 88.4574018 90.3656331 92.80238246 90.36250877 97.14746284 C90.36302274 99.22993176 90.36827458 101.31240503 90.37832069 103.39484978 C90.39061155 106.29592311 90.38394038 109.1963497 90.37231445 112.09741211 C90.37995819 112.95923599 90.38760193 113.82105988 90.39547729 114.70899963 C90.34339679 120.56736484 90.34339679 120.56736484 88.63360882 122.72147465 C86.26968608 124.57157188 84.49775847 124.3565383 81.52734375 124.328125 C80.46322266 124.32296875 79.39910156 124.3178125 78.30273438 124.3125 C77.19220703 124.291875 76.08167969 124.27125 74.9375 124.25 C73.82310547 124.24484375 72.70871094 124.2396875 71.56054688 124.234375 C63.30861549 124.15430775 63.30861549 124.15430775 61 123 C59.1324627 114.45424742 59.83716862 104.98598635 59.80076981 96.26581764 C59.78882025 93.65408328 59.76933457 91.04250269 59.74765015 88.43083191 C59.68653123 81.01359183 59.63193375 73.59637697 59.59863281 66.17895508 C59.5776321 61.62089875 59.54230497 57.06314027 59.49787521 52.50525475 C59.48377993 50.77863766 59.4750075 49.05196808 59.47182083 47.3252964 C59.46688414 44.90901238 59.44366245 42.4935152 59.41650391 40.07739258 C59.41951004 39.3753772 59.42251617 38.67336182 59.4256134 37.95007324 C59.32314209 31.77728137 58.09078138 26.09078138 53.625 21.625 C46.69438364 17.33461844 40.00700085 17.11334906 32 18 C25.02850836 20.58361558 20.90901591 25.72276152 17.8125 32.3125 C13.53982329 43.80683812 14.96879781 57.27421278 15.01196289 69.34545898 C15.0335216 79.48848621 14.93506761 89.62745326 14.73754883 99.76855469 C14.70425615 101.58552263 14.67623782 103.40259508 14.65356445 105.21972656 C14.62043872 107.78238968 14.56844269 110.34401472 14.51171875 112.90625 C14.50532883 113.68005005 14.4989389 114.4538501 14.49235535 115.25109863 C14.41150651 118.16914299 14.33276688 120.44643347 12.80786133 122.9831543 C10.30589663 124.39040385 8.42712382 124.37207865 5.5625 124.36328125 C4.50289063 124.36263672 3.44328125 124.36199219 2.3515625 124.36132812 C1.24554688 124.34521484 0.13953125 124.32910156 -1 124.3125 C-2.10601562 124.31572266 -3.21203125 124.31894531 -4.3515625 124.32226562 C-12.59938076 124.26707949 -12.59938076 124.26707949 -16 122 C-16.29496265 119.18214861 -16.39579454 116.58180364 -16.36889648 113.76171875 C-16.3745462 112.48327339 -16.3745462 112.48327339 -16.38031006 111.17900085 C-16.38675753 109.32326356 -16.38639849 107.46749326 -16.38012505 105.61175537 C-16.37103412 102.66819193 -16.38121874 99.72526829 -16.39674377 96.78173828 C-16.43688012 88.41098082 -16.43805625 80.04027124 -16.43579102 71.66943359 C-16.4357397 66.55117553 -16.45502031 61.43325847 -16.48512459 56.31509399 C-16.49590021 53.42687455 -16.48384335 50.5393207 -16.47129822 47.65112305 C-16.208164 34.72883221 -16.208164 34.72883221 -21 23 C-26.01825969 18.77432424 -31.43275991 17.83153022 -37.8125 17.75 C-39.01519531 17.72421875 -40.21789062 17.6984375 -41.45703125 17.671875 C-46.62105648 18.15013092 -50.66127035 20.04822642 -54.125 23.9375 C-61.4355225 33.4601384 -61.56444214 44.50108793 -61.4858551 55.96217346 C-61.46838696 58.58577565 -61.476207 61.20829633 -61.4901123 63.83190918 C-61.51525815 69.38801636 -61.50996628 74.94385924 -61.5 80.5 C-61.48845609 86.97126416 -61.48956976 93.44199604 -61.52406311 99.91319275 C-61.53115017 102.49488347 -61.51450162 105.0757251 -61.49694824 107.65734863 C-61.50265347 109.23576313 -61.50946946 110.81417414 -61.51757812 112.39257812 C-61.50626358 113.10740356 -61.49494904 113.822229 -61.48329163 114.55871582 C-61.52507426 117.95638107 -61.78043697 119.71333997 -63.87278748 122.44509888 C-66.53697933 124.39250886 -68.038 124.4901094 -71.31640625 124.4609375 C-72.32767578 124.45707031 -73.33894531 124.45320312 -74.38085938 124.44921875 C-75.43080078 124.42472656 -76.48074219 124.40023437 -77.5625 124.375 C-78.61630859 124.37371094 -79.67011719 124.37242187 -80.75585938 124.37109375 C-88.57814022 124.28123985 -88.57814022 124.28123985 -92 122 C-92.3719368 119.77329159 -92.3719368 119.77329159 -92.36749268 116.94480896 C-92.37584641 115.33995636 -92.37584641 115.33995636 -92.3843689 113.7026825 C-92.37515411 112.5239003 -92.36593933 111.3451181 -92.35644531 110.13061523 C-92.35848969 108.89322601 -92.36053406 107.65583679 -92.36264038 106.38095093 C-92.36513812 102.98214399 -92.35422228 99.58388072 -92.33711338 96.18514895 C-92.32210441 92.63418726 -92.32325207 89.08322992 -92.32244873 85.53224182 C-92.31875384 79.56937491 -92.3037745 73.60662296 -92.28125 67.64379883 C-92.25236269 59.98076402 -92.24202605 52.31782177 -92.2375679 44.65473843 C-92.23359302 38.07768593 -92.22109091 31.50065371 -92.20722103 24.92361569 C-92.20311592 22.80390484 -92.20019343 20.68419471 -92.19742584 18.56448174 C-92.19163884 14.6229552 -92.17697013 10.68148981 -92.16113281 6.73999023 C-92.16001495 5.55918381 -92.15889709 4.37837738 -92.15774536 3.16178894 C-92.15203522 2.09470703 -92.14632507 1.02762512 -92.14044189 -0.0717926 C-92.13746723 -1.00481484 -92.13449257 -1.93783709 -92.13142776 -2.89913273 C-92 -5 -92 -5 -91 -6 C-89.01242972 -6.09983058 -87.0213248 -6.13080753 -85.03125 -6.1328125 C-83.82082031 -6.13410156 -82.61039063 -6.13539063 -81.36328125 -6.13671875 C-80.08839844 -6.13285156 -78.81351563 -6.12898438 -77.5 -6.125 C-75.58767578 -6.13080078 -75.58767578 -6.13080078 -73.63671875 -6.13671875 C-71.82107422 -6.13478516 -71.82107422 -6.13478516 -69.96875 -6.1328125 C-68.84919922 -6.13168457 -67.72964844 -6.13055664 -66.57617188 -6.12939453 C-64 -6 -64 -6 -63 -5 C-62.76472227 -2.65012738 -62.58613583 -0.29443961 -62.4375 2.0625 C-62.31181641 3.99802734 -62.31181641 3.99802734 -62.18359375 5.97265625 C-62.12300781 6.97167969 -62.06242187 7.97070312 -62 9 C-61.67128906 8.49210937 -61.34257813 7.98421875 -61.00390625 7.4609375 C-54.82069199 -1.48712866 -46.70148553 -6.07462862 -36.25 -8.6875 C-22.77256896 -9.98340683 -11.01370082 -8.37266032 0 0 Z " fill="#ffffff" transform="translate(115,369)"/>
<path d="M0 0 C7.28207467 6.20498324 12.00513562 14.33740129 12.85791016 23.93334961 C13.02353582 27.37243635 13.1147344 30.8076613 13.1875 34.25 C13.22076056 35.61930992 13.25430165 36.98861305 13.28808594 38.35791016 C13.36549252 41.62797073 13.43387691 44.89812063 13.49853516 48.16845703 C13.59116963 52.80513788 13.69804984 57.44139062 13.81005859 62.07763672 C13.96648657 68.57328243 14.10918062 75.06910762 14.2391634 81.56533718 C14.31299598 85.24776791 14.39153661 88.92995439 14.48147583 92.61203003 C14.56702582 96.13658246 14.63750721 99.66113406 14.69695473 103.18622017 C14.73370001 105.1437294 14.78567626 107.10093373 14.8379364 109.05809021 C14.85500137 110.23372025 14.87206635 111.40935028 14.88964844 112.62060547 C14.91105896 113.651362 14.93246948 114.68211853 14.95452881 115.74411011 C14.625 118.3125 14.625 118.3125 13.2674408 120.1469574 C10.86209206 121.85389042 9.00375903 121.65184538 6.08203125 121.60546875 C5.00888672 121.59580078 3.93574219 121.58613281 2.83007812 121.57617188 C1.71052734 121.55103516 0.59097656 121.52589844 -0.5625 121.5 C-1.69365234 121.48646484 -2.82480469 121.47292969 -3.99023438 121.45898438 C-6.78563317 121.42359958 -9.58007892 121.37422948 -12.375 121.3125 C-14.0211307 115.96581565 -14.56886644 111.83769352 -14.375 106.3125 C-14.83648437 106.73660156 -15.29796875 107.16070312 -15.7734375 107.59765625 C-30.0485782 120.43399819 -42.08161639 125.16724171 -61.37695312 124.44433594 C-72.69371804 123.69762858 -83.07113505 118.69427123 -90.83984375 110.4296875 C-95.23989555 104.36142268 -97.95240544 96.7783373 -98.375 89.3125 C-98.42527344 88.62929688 -98.47554687 87.94609375 -98.52734375 87.2421875 C-98.95581231 77.4045493 -95.71788222 68.80863353 -89.375 61.3125 C-71.73019896 44.28681479 -39.48387824 43.52144585 -16.375 39.3125 C-16.34441075 37.57042339 -16.32270784 35.82818945 -16.3046875 34.0859375 C-16.29163574 33.11575684 -16.27858398 32.14557617 -16.26513672 31.14599609 C-16.44930666 26.39604858 -17.54151176 22.37780859 -20.734375 18.78125 C-26.26658652 13.87640268 -31.43133241 12.94624512 -38.625 13 C-39.75953613 13.00628418 -39.75953613 13.00628418 -40.91699219 13.01269531 C-47.80130167 13.151862 -53.04768443 14.45539364 -59.0625 17.8125 C-62.16142788 21.16269231 -64.06214248 24.90474889 -66.140625 28.94921875 C-67.375 31.3125 -67.375 31.3125 -68.375 32.3125 C-70.15571246 32.39976223 -71.9398314 32.41949041 -73.72265625 32.41015625 C-74.80224609 32.40693359 -75.88183594 32.40371094 -76.99414062 32.40039062 C-78.13044922 32.39201172 -79.26675781 32.38363281 -80.4375 32.375 C-81.57767578 32.37048828 -82.71785156 32.36597656 -83.89257812 32.36132812 C-86.72010351 32.34949747 -89.5475264 32.3330141 -92.375 32.3125 C-92.71859437 19.94921091 -89.82364387 9.68724522 -81.375 0.3125 C-61.20141739 -18.19178968 -21.01843301 -15.53672545 0 0 Z M-66.375 73.3125 C-68.99460863 78.1000606 -70.05458649 81.8758081 -69.375 87.3125 C-67.48514107 92.13875265 -64.76304451 95.49161424 -60.375 98.3125 C-52.30918524 101.4951648 -43.10964179 101.69104369 -34.9375 98.6875 C-26.40175332 94.68549418 -20.77595759 88.57041757 -17.40234375 79.77734375 C-15.27987279 72.91633297 -15.0385361 66.45301157 -15.375 59.3125 C-30.39607906 59.3125 -54.84422544 62.70902549 -66.375 73.3125 Z " fill="#ffffff" transform="translate(319.375,371.6875)"/>
<path d="M0 0 C9.92093942 7.64026369 15.53795866 16.42845431 17.5625 28.75 C17.82224606 31.9906946 17.84659926 35.21072449 17.8371582 38.46069336 C17.84226913 39.38538422 17.84738007 40.31007507 17.85264587 41.26278687 C17.86643463 44.28854007 17.86559472 47.31406307 17.86328125 50.33984375 C17.86717107 52.45211369 17.87150633 54.56438285 17.87626648 56.676651 C17.88370331 61.08695016 17.88345363 65.49716919 17.87817383 69.9074707 C17.87235013 75.56932674 17.88939207 81.23085872 17.9125185 86.89266109 C17.9272098 91.24626085 17.92813441 95.59978142 17.92500877 99.95340157 C17.92552324 102.04227915 17.93078444 104.13116103 17.94082069 106.22001457 C17.95309288 109.12858521 17.94645177 112.03650889 17.93481445 114.94506836 C17.94245819 115.81205856 17.95010193 116.67904877 17.95797729 117.5723114 C17.9367218 119.96348572 17.9367218 119.96348572 17.5625 123.75 C14.14952352 126.02531766 12.88119095 126.00674679 8.87109375 126.015625 C7.20723633 126.01949219 7.20723633 126.01949219 5.50976562 126.0234375 C3.77243164 126.01183594 3.77243164 126.01183594 2 126 C0.83791016 126.00773438 -0.32417969 126.01546875 -1.52148438 126.0234375 C-2.62943359 126.02085937 -3.73738281 126.01828125 -4.87890625 126.015625 C-5.89670166 126.01336914 -6.91449707 126.01111328 -7.96313477 126.00878906 C-10.4375 125.75 -10.4375 125.75 -12.4375 123.75 C-12.64450721 121.14814293 -12.72799665 118.65040208 -12.72460938 116.04663086 C-12.73144241 115.25124908 -12.73827545 114.45586731 -12.74531555 113.63638306 C-12.75892643 111.90507278 -12.76796499 110.17372203 -12.77302551 108.44236565 C-12.78130505 105.69658787 -12.80180553 102.95114425 -12.82556152 100.20545959 C-12.87386781 94.36618938 -12.90670206 88.5268853 -12.9375 82.6875 C-12.97323098 75.94393731 -13.01537354 69.20053512 -13.07344055 62.45712471 C-13.09339776 59.76240469 -13.10180934 57.06780986 -13.10974121 54.37303162 C-13.12272833 52.7017269 -13.13625077 51.03042622 -13.15039062 49.35913086 C-13.14940872 48.61851913 -13.14842682 47.87790741 -13.14741516 47.11485291 C-13.24058484 39.14320317 -14.368867 31.7353008 -19.5625 25.48046875 C-25.84724157 19.68017601 -33.79597871 19.03614604 -42.03125 19.3046875 C-48.77899021 20.1868462 -54.086435 22.99610205 -58.8125 27.875 C-65.7206969 37.350551 -66.00877682 47.37919214 -65.95392036 58.63700867 C-65.94116435 61.2686554 -65.95268954 63.89927287 -65.96995544 66.53088379 C-65.99648913 71.15912101 -66.00225658 75.78710022 -66.00085449 80.41540527 C-65.99861329 87.85012728 -66.01267493 95.28453408 -66.05644035 102.71913147 C-66.06628287 105.3112556 -66.05756619 107.90288126 -66.04774475 110.49499512 C-66.05388541 112.0767449 -66.06079595 113.65849194 -66.06860352 115.24023438 C-66.06088425 115.96022614 -66.05316498 116.6802179 -66.04521179 117.42202759 C-66.07488847 120.32649442 -66.10657389 122.27890373 -67.80455017 124.6960907 C-70.18645837 126.23337933 -72.05876241 126.12193005 -74.875 126.11328125 C-76.46441406 126.11231445 -76.46441406 126.11231445 -78.0859375 126.11132812 C-79.19195312 126.09521484 -80.29796875 126.07910156 -81.4375 126.0625 C-82.54351562 126.06572266 -83.64953125 126.06894531 -84.7890625 126.07226562 C-93.03688076 126.01707949 -93.03688076 126.01707949 -96.4375 123.75 C-96.80664349 121.50488091 -96.80664349 121.50488091 -96.79826355 118.65011597 C-96.80238754 117.57035492 -96.80651154 116.49059387 -96.8107605 115.37811279 C-96.79997467 114.18840881 -96.78918884 112.99870483 -96.77807617 111.77294922 C-96.77851425 110.52420013 -96.77895233 109.27545105 -96.77940369 107.98886108 C-96.77766847 104.55912575 -96.76259618 101.12992836 -96.74168181 97.7002883 C-96.72296141 94.11817087 -96.72116825 90.53604673 -96.71760559 86.95388794 C-96.70827144 80.16818579 -96.68363925 73.38262818 -96.65355712 66.59698975 C-96.62005561 58.87280602 -96.60353782 51.14861547 -96.58847082 43.4243772 C-96.55709079 27.53283435 -96.50430383 11.64143579 -96.4375 -4.25 C-91.18493844 -4.93394505 -86.12295293 -5.41001318 -80.8125 -5.4375 C-79.56210937 -5.45167969 -78.31171875 -5.46585937 -77.0234375 -5.48046875 C-73.4375 -5.25 -73.4375 -5.25 -67.4375 -3.25 C-66.9425 3.68 -66.9425 3.68 -66.4375 10.75 C-65.2309375 9.203125 -65.2309375 9.203125 -64 7.625 C-48.71562917 -10.09341584 -19.18220179 -12.624431 0 0 Z " fill="#ffffff" transform="translate(451.4375,367.25)"/>
<path d="M0 0 C9.61046318 9.28190034 11.60647613 20.56980802 11.90161133 33.52197266 C11.96708223 37.42347984 11.99582952 41.3246081 12.01953125 45.2265625 C12.04149142 47.31213399 12.0644315 49.39769536 12.08830261 51.48324585 C12.13492061 55.82848357 12.17167535 60.17365447 12.20092773 64.51904297 C12.23900863 70.09687045 12.29909201 75.67420179 12.36604786 81.25174904 C12.41571868 85.5460737 12.45541795 89.84044382 12.49188805 94.13489914 C12.5102908 96.193095 12.53147359 98.25126792 12.55545998 100.30940628 C12.5870335 103.17195739 12.6055589 106.03429237 12.62036133 108.89697266 C12.63810356 110.17636215 12.63810356 110.17636215 12.65620422 111.4815979 C12.6596773 113.50987285 12.55845375 115.53783175 12.4375 117.5625 C10.4375 119.5625 10.4375 119.5625 7.91552734 119.78955078 C6.8786377 119.77907715 5.84174805 119.76860352 4.7734375 119.7578125 C3.65195312 119.75136719 2.53046875 119.74492187 1.375 119.73828125 C-0.3884375 119.71314453 -0.3884375 119.71314453 -2.1875 119.6875 C-3.37085938 119.67847656 -4.55421875 119.66945313 -5.7734375 119.66015625 C-8.70332523 119.63652812 -11.6328134 119.60358514 -14.5625 119.5625 C-16.1144394 115.89745279 -16.79404439 113.24541448 -16.6875 109.25 C-16.66945313 108.36699219 -16.65140625 107.48398437 -16.6328125 106.57421875 C-16.60960937 105.91035156 -16.58640625 105.24648438 -16.5625 104.5625 C-17.03558594 104.99820313 -17.50867188 105.43390625 -17.99609375 105.8828125 C-31.72743236 118.24904727 -45.01683583 123.38242383 -63.55273438 122.69433594 C-74.9378047 121.94750188 -86.41657583 116.95923096 -94.1328125 108.44921875 C-100.40533109 100.17155077 -101.94495847 89.39894516 -101.375 79.2109375 C-100.06151999 69.94621245 -97.30328768 63.17452724 -89.94140625 57.22265625 C-75.35364903 47.04236591 -57.44176168 44.81604987 -40.3125 41.875 C-37.66192592 41.41492127 -35.01170321 40.95294037 -32.36187744 40.48857117 C-30.72968014 40.20303318 -29.09700678 39.9201993 -27.46380615 39.64045715 C-24.40537202 39.10928444 -21.51247591 38.5458253 -18.5625 37.5625 C-18.13939779 29.03777391 -18.36212477 22.43663843 -23.9375 15.6875 C-29.11097243 11.49945089 -33.82629287 11.17417695 -40.25 11.1875 C-41.45112427 11.18991699 -41.45112427 11.18991699 -42.67651367 11.19238281 C-48.96715322 11.32241528 -54.07093984 12.3487533 -59.5625 15.5625 C-60.47 16.078125 -61.3775 16.59375 -62.3125 17.125 C-65.95330139 21.06920151 -68.1424489 25.80588073 -70.5625 30.5625 C-74.54165159 30.59136984 -78.52077653 30.60925406 -82.5 30.625 C-84.20446289 30.63756836 -84.20446289 30.63756836 -85.94335938 30.65039062 C-87.02294922 30.65361328 -88.10253906 30.65683594 -89.21484375 30.66015625 C-90.71519165 30.66801147 -90.71519165 30.66801147 -92.24584961 30.67602539 C-94.5625 30.5625 -94.5625 30.5625 -95.5625 29.5625 C-96.45296275 19.32217833 -92.67825796 9.65411822 -86.5625 1.5625 C-66.79241694 -21.20305019 -22.03349404 -17.99745214 0 0 Z M-33.25 59.6875 C-33.90977844 59.8023172 -34.56955688 59.9171344 -35.24932861 60.03543091 C-53.69998434 62.66649905 -53.69998434 62.66649905 -69.38671875 71.8359375 C-72.10689655 75.83035141 -72.94903707 79.94263764 -72.24609375 84.70703125 C-70.61767278 90.06340966 -67.30729275 93.6695584 -62.5625 96.5625 C-54.6063745 99.77344321 -44.79215246 99.97445759 -36.75 96.78125 C-27.60025364 91.68353417 -22.21035426 84.2313479 -18.5625 74.5625 C-17.30709364 69.27185891 -17.45198195 63.97788449 -17.5625 58.5625 C-22.01318343 56.33715829 -28.45003587 58.84609452 -33.25 59.6875 Z " fill="#ffffff" transform="translate(587.5625,373.4375)"/>
<path d="M0 0 C1.0091748 0.01087646 2.01834961 0.02175293 3.05810547 0.03295898 C18.27416443 0.35850845 30.92746948 4.80181299 42.3125 15.25 C57.06434797 30.97094747 61.62904735 51.47051092 61.6953125 72.4765625 C61.5625 74.375 61.5625 74.375 60.5625 75.375 C57.70237103 75.50025151 54.86521846 75.56109721 52.00366211 75.58032227 C51.10618759 75.59022186 50.20871307 75.60012146 49.28404236 75.61032104 C46.30267012 75.6420354 43.32128191 75.66673256 40.33984375 75.69140625 C38.27860589 75.71196721 36.21737234 75.73296344 34.15614319 75.75437927 C28.71950756 75.8096886 23.28283333 75.85905866 17.84613037 75.90722656 C12.30298408 75.95737706 6.75989414 76.01309672 1.21679688 76.06835938 C-9.66792066 76.17604926 -20.55268703 76.27747002 -31.4375 76.375 C-31.55488865 85.73916148 -29.25758978 94.28625482 -23.203125 101.625 C-16.04095589 108.72378708 -8.18983112 111.64371878 1.875 111.75 C11.06434542 111.60485733 18.13014566 109.41087935 24.96801758 103.17138672 C26.67133643 101.25238196 27.38751236 99.54381793 28.3984375 97.203125 C29.69555664 95.07714844 29.69555664 95.07714844 31.5625 93.375 C36.18879772 92.35318426 40.66600725 92.62164498 45.375 92.875 C46.64021484 92.91109375 47.90542969 92.9471875 49.20898438 92.984375 C52.32989744 93.07859124 55.44465808 93.21001803 58.5625 93.375 C60.02383891 99.66136683 57.82450541 102.98385313 54.5625 108.375 C52.39533019 111.5333162 50.05839691 114.47127679 47.5625 117.375 C47.06363281 117.98085938 46.56476563 118.58671875 46.05078125 119.2109375 C36.15116569 130.23267573 20.95701647 135.88671163 6.47265625 136.75 C-11.3834689 137.37177434 -27.63664063 133.59909188 -41.8125 122.0625 C-55.4473234 109.20270866 -61.68449096 90.69051547 -62.47265625 72.33203125 C-62.2894012 51.70565678 -57.45498351 31.91712558 -42.828125 16.59375 C-30.6239169 5.26696862 -16.61151223 -0.24457468 0 0 Z M-26.75 38.125 C-29.09557307 42.6424 -30.59349963 47.35043704 -31.4375 52.375 C-31.1075 53.365 -30.7775 54.355 -30.4375 55.375 C-22.71452538 55.40037991 -14.99156153 55.41787951 -7.26855469 55.42993164 C-4.64192299 55.43495667 -2.01529409 55.44177774 0.61132812 55.45043945 C4.38932993 55.46258507 8.16729471 55.46824667 11.9453125 55.47265625 C13.70344772 55.48039818 13.70344772 55.48039818 15.49710083 55.48829651 C16.597789 55.48837204 17.69847717 55.48844757 18.83251953 55.48852539 C19.79626495 55.490746 20.76001038 55.49296661 21.75296021 55.49525452 C24.7564231 55.36669966 27.60967242 54.92592001 30.5625 54.375 C30.00626296 46.08898609 28.63614005 38.44864005 22.5625 32.375 C5.84125027 19.35515312 -13.39428296 22.24252568 -26.75 38.125 Z " fill="#ffffff" transform="translate(820.4375,359.625)"/>
<path d="M0 0 C1.05259482 3.15778446 1.12916606 5.41194879 1.1328125 8.7265625 C1.13410156 9.8403125 1.13539063 10.9540625 1.13671875 12.1015625 C1.13285156 13.26429688 1.12898437 14.42703125 1.125 15.625 C1.12886719 16.79546875 1.13273438 17.9659375 1.13671875 19.171875 C1.13542969 20.28304688 1.13414062 21.39421875 1.1328125 22.5390625 C1.13168457 23.56209473 1.13055664 24.58512695 1.12939453 25.63916016 C1 28 1 28 0 29 C-1.9590188 29.09530362 -3.91857804 29.18430101 -5.87915039 29.23901367 C-18.10948915 29.60836573 -29.53685644 31.58831684 -39 40 C-48.24828841 50.38404313 -48.44052146 63.09985374 -48.44140625 76.31640625 C-48.45320118 77.86532322 -48.46657052 79.41422891 -48.48143005 80.96311951 C-48.5173275 85.00476249 -48.53774131 89.04630528 -48.55297852 93.08807373 C-48.5779879 99.58746808 -48.6173649 106.08664181 -48.67487907 112.58582878 C-48.69120936 114.85158873 -48.6949834 117.11713829 -48.69789124 119.38294983 C-48.70766049 120.76254651 -48.71792259 122.14213981 -48.72875977 123.52172852 C-48.73303482 124.72765152 -48.73730988 125.93357452 -48.74171448 127.17604065 C-49 130 -49 130 -51 132 C-53.58203125 132.25878906 -53.58203125 132.25878906 -56.8125 132.265625 C-57.97007812 132.26820313 -59.12765625 132.27078125 -60.3203125 132.2734375 C-61.53460937 132.26570312 -62.74890625 132.25796875 -64 132.25 C-65.21429687 132.25773438 -66.42859375 132.26546875 -67.6796875 132.2734375 C-69.41605469 132.26957031 -69.41605469 132.26957031 -71.1875 132.265625 C-72.78658203 132.26224121 -72.78658203 132.26224121 -74.41796875 132.25878906 C-77 132 -77 132 -79 130 C-79.27009296 127.79449558 -79.27009296 127.79449558 -79.29866028 124.99623108 C-79.31415924 123.93763382 -79.3296582 122.87903656 -79.34562683 121.7883606 C-79.35250015 120.62207123 -79.35937347 119.45578186 -79.36645508 118.25415039 C-79.38131958 117.02972733 -79.39618408 115.80530426 -79.41149902 114.54377747 C-79.44984699 111.18014678 -79.4791431 107.8166863 -79.50351167 104.45294118 C-79.52486157 101.64714797 -79.55208564 98.84142393 -79.57922095 96.03568166 C-79.64300996 89.41748023 -79.69616694 82.79925017 -79.74291992 76.1809082 C-79.79138371 69.34837203 -79.85824188 62.51618909 -79.93408471 55.68390661 C-79.99847259 49.82236996 -80.05118892 43.96080684 -80.0945732 38.09907717 C-80.12063501 34.596188 -80.15122384 31.0934846 -80.19312477 27.59074593 C-80.23926139 23.6856305 -80.26107995 19.78058829 -80.28051758 15.87524414 C-80.29751205 14.710979 -80.31450653 13.54671387 -80.33201599 12.34716797 C-80.33341583 11.28575089 -80.33481567 10.2243338 -80.33625793 9.13075256 C-80.34380002 8.20694825 -80.35134211 7.28314394 -80.35911274 6.33134556 C-79.92940004 3.54166788 -79.24646519 2.66020125 -77 1 C-74.62744141 0.62768555 -74.62744141 0.62768555 -71.8515625 0.63671875 C-70.34335937 0.63768555 -70.34335937 0.63768555 -68.8046875 0.63867188 C-67.23074219 0.6628418 -67.23074219 0.6628418 -65.625 0.6875 C-64.5834375 0.68427734 -63.541875 0.68105469 -62.46875 0.67773438 C-57.1679137 0.71501647 -54.06257111 0.97497156 -49 3 C-49 9.27 -49 15.54 -49 22 C-48.34 22 -47.68 22 -47 22 C-46.7215625 21.01 -46.7215625 21.01 -46.4375 20 C-41.8244484 10.37276188 -33.15628112 4.67558598 -23.3125 1.1875 C-16.71998356 -0.77181433 -6.47069187 -3.23534593 0 0 Z " fill="#ffffff" transform="translate(977,361)"/>
</svg>
