<?xml version="1.0" encoding="UTF-8" standalone="no"?>
<!-- Created with Pixodesk SVG (https://pixodesk.com) -->
<svg xmlns="http://www.w3.org/2000/svg" viewBox="0 0 1200 200" text-rendering="geometricPrecision" shape-rendering="geometricPrecision" fill="none" stroke="none">
  <g transform="translate(413.4738, 105.3682)scale(0.3861, 0.3861)translate(-741.9607, -166.9171)">
    <text fill="#ffffff" font-family="Tahoma" font-size="170px" font-weight="600" xml:space="preserve" transform="translate(904.3129, 326.7797)scale(2.5903, 2.5903)" data-gn-el-type="text" style="white-space:pre"><tspan>EMBER</tspan></text>
    <text fill="#ffffff" font-family="Tahoma" font-size="170px" font-weight="600" xml:space="preserve" transform="translate(-22.2246, 326.7795)scale(2.5903, 2.5903)" data-gn-el-type="text" style="white-space:pre"><tspan>RE</tspan></text>
    <path fill="#ffffff" stroke="none" transform="translate(579.6152, 287.6807)" d="M23.0654,38.7029L82.1257,38.7029L82.1257,-182.5555L162.3636,-71.1436L162.3636,-168.8183L82.1257,-280.2301L23.0654,-280.2301L23.0654,38.7029z"/>
    <path fill="#ffffff" stroke="none" transform="translate(811.5918, 287.6807)scale(-1, 1)translate(-92.7145, 0)" d="M23.0654,38.7029L82.1257,38.7029L82.1256,-182.5555L162.3636,-71.1435L162.3636,-168.8183L82.1257,-280.2301L23.0654,-280.2301L23.0654,38.7029z"/>
    <path fill="none" stroke="#ffffff" stroke-width="50" transform="translate(413.4609, -186.907)" d="M363.2876,304.1249C363.2876,304.1249,362.6486,315.3312,313.9304,382.3236C295.633,407.4842,290.1009,448.728,310.7041,470.0984C331.3073,491.4688,352.2885,470.0984,352.2885,470.0984L432.5265,358.6865"/>
  </g>
</svg>