<?xml version="1.0" encoding="UTF-8" standalone="no"?>
<!-- Created with Pixodesk SVG (https://pixodesk.com) -->
<svg xmlns="http://www.w3.org/2000/svg" viewBox="0 0 1024 768" text-rendering="geometricPrecision" shape-rendering="geometricPrecision" fill="none">
  <path fill="#000000" transform="translate(610.5727, 22.1328)" d="M0,0C0.6441,-0.0067,56.2598,-0.2011,57.4661,-0.2039C62.2562,0.5245,65.3012,2.6707,68.4662,6.2895C68.9348,6.9932,69.4036,7.6971,69.8864,8.4221C70.431,9.2278,70.9758,10.0335,71.5369,10.8636C72.3901,12.1634,117.7257,80.8171,119.4599,83.4545C119.9109,84.1381,120.3622,84.8219,120.8269,85.5263C121.6898,86.8347,122.5501,88.1448,123.4074,89.4569C126.1014,93.8,126.1015,93.8002,129.7177,97.2905C132.1936,97.8582,132.1937,97.8582,134.7177,97.2905C141.3004,91.7837,145.7852,82.649,150.2414,75.4201C153.2479,70.5474,196.7542,5.8439,197.2358,5.1269C199.7102,2.0606,201.5878,0.4411,205.577,-0.0903C206.6812,-0.0926,261.425,-0.0939,263.1124,-0.0903C264.402,0.0982,264.4021,0.0982,265.7177,0.2905C267.8974,3.5601,267.9681,4.4747,267.9694,8.2584C267.9746,9.2901,267.9799,10.3219,267.9852,11.3848C267.9808,12.5218,267.9747,292.2597,267.9694,293.3226C267.9692,294.2159,267.9685,295.1094,267.9683,296.0298C267.7177,298.2904,267.7177,298.2905,265.7177,301.2905C263.2821,301.6579,263.282,301.6579,260.1823,301.6469C258.4456,301.6514,258.4456,301.6515,256.6738,301.656C255.4186,301.6437,254.1632,301.6313,252.8701,301.6186C251.588,301.6168,250.3057,301.6148,248.9847,301.6129C246.2702,301.6083,243.5559,301.5938,240.8415,301.5717C237.3553,301.5434,233.8693,301.5324,230.383,301.528C227.0662,301.5229,223.7494,301.5083,220.4326,301.4936C218.5468,301.4873,218.5466,301.4872,216.6227,301.4807C214.8907,301.4663,214.8906,301.4663,213.1237,301.4516C211.5907,301.4414,211.5905,301.4413,210.0264,301.4309C207.7177,301.2905,207.7177,301.2905,206.7177,300.2905C206.6226,297.6127,206.5922,294.9605,206.6042,292.2824C206.6041,291.4435,206.6039,290.6044,206.6038,289.7401C206.6043,286.9535,206.6967,224.4643,206.7177,214.2905C203.0468,215.5141,202.5864,216.9539,200.8889,220.2802C200.5425,220.9835,200.1958,221.687,199.8388,222.4116C199.4705,223.1388,199.102,223.8661,198.7225,224.6154C197.9341,226.1739,197.1496,227.7348,196.3694,229.2975C194.3513,233.3369,189.4561,242.9553,189.0458,243.7645C184.8293,252.0698,180.4618,260.2733,175.7177,268.2905C174.7336,269.963,152.6456,295.9486,137.7177,300.2905C125.9298,302.5146,114.6261,301.5193,104.1551,295.2905C87.0954,283.5405,76.7178,265.9679,72.4051,245.9155C72.151,244.3778,71.9209,242.8356,71.7176,241.2905C71.5533,240.0821,71.5533,240.082,71.3857,238.8491C68.2838,212.4204,76.0461,192.9588,88.7176,170.2905C90.0139,167.9684,91.2822,165.6396,92.5301,163.2905C92.9902,162.4449,93.4507,161.5992,93.9248,160.728C95.2796,156.5634,94.2604,153.4455,92.4404,149.5717C89.2212,144.1785,59.4278,99.5941,59.0029,98.9235C56.6345,95.1826,56.6344,95.1826,52.7177,93.2905C52.7195,94.3494,52.7215,95.4084,52.7233,96.4993C52.7676,122.2369,52.9636,288.404,52.9582,291.1092C52.9639,291.9019,52.9699,292.6948,52.9759,293.5116C52.9551,297.3131,52.8795,299.0478,50.7177,302.2905C48.3269,302.6646,48.3267,302.6647,45.29,302.6628C44.1555,302.669,43.0208,302.6753,41.8519,302.6817C40.0066,302.6679,40.0065,302.6678,38.124,302.6538C36.2376,302.6545,36.2376,302.6546,34.3131,302.6553C31.6497,302.653,28.9868,302.6447,26.3237,302.6267C22.9071,302.6042,19.4907,302.6035,16.074,302.6102C12.8198,302.6143,9.5656,302.6023,6.3115,302.5913C4.4662,302.5926,4.4661,302.5927,2.5836,302.594C1.4491,302.5845,0.3145,302.5748,-0.8544,302.565C-1.8565,302.5604,-2.8588,302.5559,-3.8912,302.5512C-6.282,302.2906,-6.2822,302.2905,-8.2822,300.2905C-8.5328,298.1337,-8.5329,298.1336,-8.5338,295.396C-8.539,294.3552,-8.5444,293.3144,-8.5497,292.2421C-8.5453,291.0898,-8.5452,11.5261,-8.5497,10.3389C-8.5445,9.2981,-8.5391,8.2573,-8.5338,7.185C-8.5336,6.2816,-8.5331,5.3781,-8.5329,4.4474C-7.9412,-0.6436,-4.2089,0.0274,0,0zM204.7177,85.2905C199.9382,91.268,195.5352,97.3903,191.3427,103.7905C190.1055,105.6622,142.6384,175.8727,137.892,182.7131C126.645,198.9533,117.9058,212.8504,119.7177,233.2905C120.8475,238.678,122.4741,243.5499,126.4677,247.478C130.3483,249.6422,133.3758,250.4478,137.7177,249.2905C151.7924,241.2638,199.6998,163.2419,200.5541,161.9649C201.0719,161.1768,201.5897,160.3886,202.1232,159.5766C202.5772,158.8918,203.0315,158.2068,203.4993,157.5012C206.1735,152.649,206.9667,148.326,206.9447,142.8261C206.9446,141.5653,206.9444,140.3044,206.9443,139.0054C206.9341,137.6448,206.9236,136.2839,206.913,134.9233C206.9093,133.5195,206.9064,132.1155,206.9045,130.7116C206.8969,127.0324,206.8772,123.3532,206.8551,119.6741C206.8346,115.9135,206.8254,112.1526,206.8154,108.392C206.7941,101.0248,206.7598,93.6576,206.7177,86.2905C205.7277,85.7956,205.7276,85.7955,204.7177,85.2905z" style="display:none"/>
  <text fill="#000000" font-family="Tahoma" font-size="170px" font-weight="600" xml:space="preserve" transform="translate(377.8728, 463.0735)" data-gn-el-type="text" style="white-space:pre"><tspan>EMBER</tspan></text>
  <text fill="#000000" font-family="Tahoma" font-size="170px" font-weight="600" xml:space="preserve" transform="translate(20.1728, 463.0734)" data-gn-el-type="text" style="white-space:pre"><tspan>RE</tspan></text>
  <path fill-opacity="0" stroke="#d7bf2a" stroke-width="60" transform="translate(750.911, 170.6105)translate(-118.9408, -153.8679)" d="M0,307.7357L0.4186,-9.8148M0,0L107.5402,152.3721L223.7219,0M224.1405,-9.8148L223.7219,307.7357" style="display:none"/>
  <g stroke="#000000" transform="translate(741.9608, 166.9172)translate(-741.9608, -166.9172)">
    <path fill="#000000" transform="translate(579.6153, 287.6809)" d="M23.0654,38.7029L82.1258,38.7029L82.1258,-182.5555L162.3636,-71.1437L162.3636,-168.8183L82.1258,-280.2302L23.0654,-280.2302L23.0654,38.7029z"/>
    <path fill="#000000" transform="translate(811.5919, 287.6807)scale(-1, 1)translate(-92.7145, 0)" d="M23.0654,38.7029L82.1257,38.7029L82.1257,-182.5555L162.3636,-71.1436L162.3636,-168.8183L82.1257,-280.2301L23.0654,-280.2301L23.0654,38.7029z"/>
    <path fill-opacity="0" stroke-width="50" transform="translate(413.4609, -186.907)" d="M363.2877,304.125C363.2877,304.125,362.6486,315.3312,313.9304,382.3237C295.6329,407.4845,290.1009,448.728,310.7042,470.0985C331.3074,491.4689,352.2886,470.0985,352.2886,470.0985L432.5265,358.6866"/>
  </g>
  <g transform="translate(315.1949, 401.3567)scale(0.3861, 0.3861)translate(-741.9607, -166.9171)">
    <path fill="#000000" stroke="none" transform="translate(579.6152, 287.6807)" d="M23.0654,38.7029L82.1257,38.7029L82.1257,-182.5555L162.3636,-71.1436L162.3636,-168.8183L82.1257,-280.2301L23.0654,-280.2301L23.0654,38.7029z"/>
    <path fill="#000000" stroke="none" transform="translate(811.5918, 287.6807)scale(-1, 1)translate(-92.7145, 0)" d="M23.0654,38.7029L82.1257,38.7029L82.1256,-182.5555L162.3636,-71.1435L162.3636,-168.8183L82.1257,-280.2301L23.0654,-280.2301L23.0654,38.7029z"/>
    <path fill="none" stroke="#000000" stroke-width="50" transform="translate(413.4609, -186.907)" d="M363.2876,304.1249C363.2876,304.1249,362.6486,315.3312,313.9304,382.3236C295.633,407.4842,290.1009,448.728,310.7041,470.0984C331.3073,491.4688,352.2885,470.0984,352.2885,470.0984L432.5265,358.6865"/>
  </g>
</svg>